<?xml version="1.0" encoding="utf-8"?>
<!-- Generator: Adobe Illustrator 27.8.0, SVG Export Plug-In . SVG Version: 6.00 Build 0)  -->
<svg version="1.1" id="Laag_1" xmlns="http://www.w3.org/2000/svg" xmlns:xlink="http://www.w3.org/1999/xlink" x="0px" y="0px"
	 viewBox="0 0 50 50" style="enable-background:new 0 0 50 50;" xml:space="preserve">
<style type="text/css">
	.st0{fill:#050705;}
</style>
<path class="st0" d="M16.66,3.35c1.85,0,3.35,1.49,3.35,3.34v9.97c0,1.85-1.5,3.34-3.35,3.34c0,0,0,0,0,0H7.71
	c-1.84,0-3.34-1.49-3.35-3.33c0,0,0,0,0,0V6.69c0-1.84,1.5-3.34,3.35-3.34L16.66,3.35L16.66,3.35z M16.66,30.01
	c1.85,0,3.35,1.49,3.35,3.34v9.97c0,1.85-1.5,3.34-3.35,3.34c0,0,0,0,0,0H7.71c-1.84,0-3.34-1.49-3.35-3.33c0,0,0,0,0,0v-9.97
	c0-1.85,1.5-3.34,3.35-3.34H16.66L16.66,30.01z M42.3,3.35c1.85,0,3.35,1.49,3.35,3.34v9.97c0,1.84-1.5,3.34-3.35,3.34h-8.95
	C31.5,20,30,18.51,29.99,16.67c0,0,0-0.01,0-0.01V6.69c0-1.84,1.5-3.34,3.35-3.34L42.3,3.35L42.3,3.35z M7.3,23.18h9.78
	c3.37,0,6.1-2.71,6.1-6.06V6.23c-0.01-3.36-2.73-6.07-6.09-6.06c0,0-0.01,0-0.01,0H7.3c-3.37,0-6.1,2.71-6.1,6.07v10.89
	c0.01,3.36,2.73,6.07,6.09,6.06C7.29,23.18,7.29,23.18,7.3,23.18L7.3,23.18z M7.3,49.84h9.78c3.37,0,6.1-2.71,6.1-6.07V32.88
	c-0.01-3.36-2.73-6.07-6.09-6.06c0,0-0.01,0-0.01,0H7.3c-3.37,0-6.1,2.71-6.1,6.06v10.89C1.21,47.13,3.93,49.84,7.3,49.84
	C7.29,49.84,7.3,49.84,7.3,49.84L7.3,49.84z M32.93,23.18h9.77c3.37,0,6.1-2.71,6.1-6.06V6.23c-0.01-3.36-2.73-6.07-6.09-6.06
	c0,0-0.01,0-0.01,0h-9.77c-3.37,0-6.09,2.71-6.09,6.07v10.89c0.01,3.36,2.73,6.07,6.09,6.06C32.93,23.18,32.93,23.18,32.93,23.18
	L32.93,23.18z M42.28,46.63h-9.36c-2.02,0-2.89-0.84-2.89-2.86V32.88c0-2.01,0.88-2.89,2.89-2.89h9.77c2.03,0,2.93,0.88,2.93,2.89
	v10.9c0,0.67,0.71,1.44,1.65,1.44s1.52-0.77,1.52-1.44v-10.9c-0.01-3.36-2.74-6.07-6.09-6.06c0,0-0.01,0-0.01,0h-9.77
	c-3.37,0-6.1,2.71-6.1,6.06v10.89c0.01,3.36,2.73,6.07,6.09,6.06c0,0,0.01,0,0.01,0h9.75c0.7,0,1.6-0.57,1.6-1.61
	c0-0.87-0.7-1.58-1.57-1.6L42.28,46.63L42.28,46.63z"/>
</svg>
