<?xml version="1.0" encoding="utf-8"?>
<!-- Generator: Adobe Illustrator 27.8.0, SVG Export Plug-In . SVG Version: 6.00 Build 0)  -->
<svg version="1.1" id="Laag_1" xmlns="http://www.w3.org/2000/svg" xmlns:xlink="http://www.w3.org/1999/xlink" x="0px" y="0px"
	 viewBox="0 0 50 50" style="enable-background:new 0 0 50 50;" xml:space="preserve">
<style type="text/css">
	.st0{fill:#050705;}
</style>
<path class="st0" d="M43.32,9.21h-3.66c-0.82,0-1.45-0.59-1.45-1.68s0.63-1.73,1.45-1.73h4.37c1.45,0,2.64,1.18,2.64,2.64v38.69
	c0,1.45-1.18,2.64-2.64,2.64H6.02c-1.46,0-2.64-1.18-2.64-2.64V8.44c0-1.46,1.18-2.64,2.64-2.64h4.83c0.82,0,1.56,0.7,1.56,1.73
	S11.67,9.2,10.85,9.2H6.84v37.14h36.33L43.32,9.21L43.32,9.21z M36.6,19.92H13.46c-0.74,0-1.34-0.78-1.34-1.74
	c0-0.96,0.6-1.74,1.34-1.74H36.6c0.74,0,1.34,0.78,1.34,1.74C37.93,19.14,37.33,19.92,36.6,19.92L36.6,19.92z M36.6,28.78H13.46
	c-0.74,0-1.34-0.78-1.34-1.74s0.6-1.74,1.34-1.74H36.6c0.74,0,1.34,0.78,1.34,1.74C37.93,28,37.33,28.78,36.6,28.78L36.6,28.78z
	 M36.6,37.63H13.46c-0.74,0-1.34-0.78-1.34-1.74s0.6-1.74,1.34-1.74H36.6c0.74,0,1.34,0.78,1.34,1.74
	C37.93,36.85,37.33,37.63,36.6,37.63L36.6,37.63z M34.03,5.75c0.85,0,1.71,0.54,1.71,1.76c0,1.22-0.79,1.66-1.71,1.66H15.75
	c-0.85,0-1.44-0.8-1.44-1.66c0-0.79,0.7-1.76,1.44-1.76h3.3V5.47c0-3.1,2.91-5.26,5.95-5.26c3.04,0,5.72,2.34,5.72,5.26
	c0,0.09-0.01,0.19-0.02,0.28L34.03,5.75z M21.42,5.78h6.63c-0.18-2.08-1.25-3.13-3.21-3.13S21.73,3.69,21.42,5.78L21.42,5.78z"/>
</svg>
