<?xml version="1.0" encoding="utf-8"?>
<!-- Generator: Adobe Illustrator 27.8.0, SVG Export Plug-In . SVG Version: 6.00 Build 0)  -->
<svg version="1.1" id="Laag_1" xmlns="http://www.w3.org/2000/svg" xmlns:xlink="http://www.w3.org/1999/xlink" x="0px" y="0px"
	 viewBox="0 0 50 50" style="enable-background:new 0 0 50 50;" xml:space="preserve">
<style type="text/css">
	.st0{fill:#050705;}
</style>
<path class="st0" d="M40.62-0.03H9.03C5.64-0.03,2.9,2.7,2.9,6.1v37.61c0,3.49,2.91,6.32,6.48,6.32h26.86
	c1.17,0,2.74-0.67,3.55-1.49l5.85-5.9c0.81-0.83,1.46-2.41,1.46-3.54V6.29C47.1,2.8,44.2-0.03,40.62-0.03z M32.76,38.88v7.86H9.38
	c-1.73,0-3.13-1.36-3.13-3.03V6.56c0,0,0-0.01,0-0.02c0.01-1.82,1.49-3.29,3.32-3.28h31.05c1.7-0.03,3.1,1.32,3.13,3.02v28.7
	l-6.91-0.08C34.58,34.9,32.76,36.67,32.76,38.88z M43.75,39.25c0,0.3-0.18,0.76-0.37,0.95l-6.1,6.16c-0.25,0.23-0.58,0.36-0.91,0.38
	h-0.26v-7.86c0-0.39,0.32-0.69,0.73-0.69l6.91,0.07V39.25z"/>
</svg>
