<?xml version="1.0" encoding="utf-8"?>
<!-- Generator: Adobe Illustrator 27.8.0, SVG Export Plug-In . SVG Version: 6.00 Build 0)  -->
<svg version="1.1" id="Laag_1" xmlns="http://www.w3.org/2000/svg" xmlns:xlink="http://www.w3.org/1999/xlink" x="0px" y="0px"
	 viewBox="0 0 50 50" style="enable-background:new 0 0 50 50;" xml:space="preserve">
<style type="text/css">
	.st0{fill:#050705;}
</style>
<path class="st0" d="M46.43,25.89H3.57v16.74c0,1.02,0.83,1.85,1.85,1.85h35.44c1.02,0,1.85,0.83,1.85,1.85
	c0,1.02-0.83,1.85-1.85,1.85H3.7c-2.05,0-3.7-1.66-3.7-3.7h0V5.52c0-2.05,1.66-3.7,3.7-3.7l0,0h12.74c0.99,0,1.94,0.4,2.64,1.1
	l5.67,5.75c0.35,0.35,0.82,0.55,1.32,0.55H46.3c2.05,0,3.7,1.66,3.7,3.7v0v26.41c0,0.99-0.8,1.78-1.79,1.78
	c-0.99,0-1.78-0.8-1.78-1.78V25.89z M46.43,22.19v-7.41c0-1.02-0.83-1.85-1.85-1.85H25.39c-0.99,0-1.94-0.4-2.64-1.1l-5.67-5.75
	c-0.35-0.35-0.82-0.55-1.31-0.55H5.42c-1.02,0-1.85,0.83-1.85,1.85l0,0v14.81H46.43L46.43,22.19z"/>
</svg>
