<?xml version="1.0" encoding="utf-8"?>
<!-- Generator: Adobe Illustrator 27.8.0, SVG Export Plug-In . SVG Version: 6.00 Build 0)  -->
<svg version="1.1" id="Laag_1" xmlns="http://www.w3.org/2000/svg" xmlns:xlink="http://www.w3.org/1999/xlink" x="0px" y="0px"
	 viewBox="0 0 50 50" style="enable-background:new 0 0 50 50;" xml:space="preserve">
<style type="text/css">
	.st0{fill:#050705;}
</style>
<path class="st0" d="M43.75,6.82h-9.37V3.69c0-1.73-1.4-3.13-3.13-3.13c0,0,0,0,0,0h-12.5c-1.73,0-3.13,1.4-3.13,3.13l0,0v3.13H6.25
	C2.8,6.82,0,9.61,0,13.07v30.13c0,3.45,2.8,6.25,6.25,6.25h37.5c3.45,0,6.25-2.8,6.25-6.25V13.07C50,9.61,47.2,6.82,43.75,6.82
	C43.75,6.82,43.75,6.82,43.75,6.82z M18.75,5.25c0-0.86,0.7-1.56,1.57-1.56h9.37c0.86,0,1.56,0.7,1.56,1.56v1.56h-12.5L18.75,5.25
	L18.75,5.25z M46.87,43.19c0,1.73-1.4,3.12-3.13,3.12H6.25c-1.72,0-3.12-1.39-3.13-3.12c0,0,0,0,0,0V24h15.84
	c-0.14,0.51-0.21,1.03-0.22,1.56c0.08,3.45,2.95,6.18,6.4,6.1c3.33-0.08,6.02-2.76,6.1-6.1c-0.01-0.53-0.08-1.05-0.22-1.56h15.85
	L46.87,43.19L46.87,43.19L46.87,43.19z M21.87,25.57c0-0.57,0.17-1.1,0.43-1.56h5.39c0.28,0.47,0.43,1.01,0.43,1.56
	c0,1.73-1.4,3.13-3.13,3.13C23.27,28.69,21.87,27.29,21.87,25.57L21.87,25.57z M46.87,20.88H3.12v-7.81c0-1.73,1.4-3.12,3.13-3.12
	h37.5c1.73,0,3.13,1.4,3.13,3.12V20.88z"/>
</svg>
