<?xml version="1.0" encoding="utf-8"?>
<!-- Generator: Adobe Illustrator 27.8.0, SVG Export Plug-In . SVG Version: 6.00 Build 0)  -->
<svg version="1.1" id="Laag_1" xmlns="http://www.w3.org/2000/svg" xmlns:xlink="http://www.w3.org/1999/xlink" x="0px" y="0px"
	 viewBox="0 0 50 50" style="enable-background:new 0 0 50 50;" xml:space="preserve">
<style type="text/css">
	.st0{fill:#050705;}
</style>
<path class="st0" d="M39.37,26.1c1.82,0.68,3.53,1.66,5.05,2.92c2.86,2.35,4.53,5.36,5.45,8.96c0.26,1.01-0.11,2.11-1.1,2.37
	c-0.93,0.19-1.97-0.55-2.09-1.41c-0.91-6.52-6.5-10.53-12.46-10.75l-0.1,0l-0.08,0.02c-0.35,0.04-0.71,0.06-1.08,0.06
	c-0.31,0-0.71-0.04-1.01-0.06c-1.03-0.08-1.73-0.76-1.64-1.8c0.08-1.03,0.98-1.8,2.01-1.73c0,0,0,0,0,0
	c0.43,0.04,0.89,0.04,1.32-0.01c3.91-0.38,7.45-3.66,7.45-7.63c0-4.23-3.99-8.01-8.16-8.01c-1.03,0-1.8-0.67-1.8-1.71
	c0-1.04,0.77-1.78,1.8-1.72c6.23,0.33,11.29,5.13,11.29,11.43c0,2.86-1.18,5.62-3.13,7.64C40.57,25.21,39.99,25.69,39.37,26.1
	L39.37,26.1z M14.83,28.65c-4.63-2.05-7.61-6.64-7.6-11.71C7.23,9.92,12.86,4.2,19.8,4.2s12.57,5.72,12.57,12.74
	c0.01,5.01-2.91,9.56-7.47,11.64c7.48,1.85,13.34,7.67,15.24,15.13c0.26,1.01-0.02,1.75-1.01,2.01c-0.99,0.26-1.94-0.23-2.19-1.24
	c-1.96-7.63-9.02-13.57-16.81-13.57c-7.8,0-15.1,5.94-17.05,13.57c-0.23,0.87-1.1,1.41-1.98,1.24c-0.99-0.26-1.21-1-0.96-2.01
	C2.08,36.17,7.7,30.51,14.83,28.65L14.83,28.65z M19.8,7.36c-5.22,0-9.46,4.3-9.46,9.58c0,5.28,4.24,9.59,9.46,9.59
	s9.46-4.31,9.46-9.59C29.26,11.66,25.02,7.36,19.8,7.36L19.8,7.36z"/>
</svg>
