<?xml version="1.0" encoding="utf-8"?>
<!-- Generator: Adobe Illustrator 27.8.0, SVG Export Plug-In . SVG Version: 6.00 Build 0)  -->
<svg version="1.1" id="Laag_1" xmlns="http://www.w3.org/2000/svg" xmlns:xlink="http://www.w3.org/1999/xlink" x="0px" y="0px"
	 viewBox="0 0 50 50" style="enable-background:new 0 0 50 50;" xml:space="preserve">
<style type="text/css">
	.st0{fill:#050705;}
</style>
<path class="st0" d="M44.79,18.46l4.33,1.02c0.52,0.12,0.89,0.59,0.89,1.12v9.86c0,0.55-0.39,1.02-0.92,1.13l-4.25,0.86
	c-0.62,0.13-1.03,0.74-0.9,1.36c0.03,0.15,0.09,0.29,0.17,0.41l2.27,3.37c0.31,0.46,0.25,1.08-0.15,1.47l-7.14,6.98
	c-0.38,0.37-0.97,0.44-1.42,0.15l-4.13-2.59c-0.54-0.34-1.25-0.18-1.59,0.36c-0.07,0.12-0.12,0.24-0.15,0.37l-0.88,4.14
	c-0.11,0.53-0.58,0.91-1.12,0.91H19.72c-0.53,0-0.99-0.36-1.12-0.87l-1.1-4.29c-0.16-0.62-0.79-0.99-1.4-0.83
	c-0.12,0.03-0.23,0.08-0.34,0.15l-3.68,2.38c-0.45,0.3-1.05,0.23-1.44-0.15l-7.13-7.01c-0.39-0.39-0.46-1-0.15-1.46l2.57-3.92
	c0.35-0.53,0.2-1.25-0.33-1.6c-0.12-0.08-0.26-0.13-0.4-0.16l-4.28-0.89C0.38,30.64,0,30.17,0,29.62v-9.81
	c0-0.54,0.38-1.01,0.92-1.13l4.57-0.98c0.62-0.13,1.02-0.74,0.89-1.37c-0.03-0.14-0.09-0.28-0.17-0.4l-2.26-3.41
	c-0.3-0.46-0.24-1.07,0.15-1.45l7.1-7.07c0.38-0.37,0.96-0.44,1.41-0.17l3.82,2.32c0.54,0.33,1.25,0.16,1.59-0.39
	c0.06-0.1,0.11-0.21,0.13-0.32l0.99-3.98c0.13-0.51,0.59-0.87,1.12-0.87l10.08,0.02c0.55,0,1.02,0.39,1.13,0.93L32.33,6
	c0.12,0.63,0.73,1.03,1.35,0.91c0.14-0.03,0.27-0.08,0.39-0.16l3.76-2.37c0.45-0.28,1.03-0.22,1.42,0.15l7.2,6.93
	c0.4,0.39,0.47,1.01,0.15,1.47l-2.52,3.75c-0.36,0.53-0.22,1.25,0.31,1.6C44.52,18.38,44.65,18.43,44.79,18.46L44.79,18.46z
	 M25,14.54c5.77,0,10.45,4.68,10.45,10.45c0,0.75-0.08,1.5-0.24,2.24c-0.2,0.9-1.08,1.46-1.98,1.27c-0.9-0.2-1.46-1.08-1.27-1.98
	c0.84-3.86-1.61-7.66-5.46-8.5c-0.49-0.11-0.99-0.16-1.5-0.16c-3.94,0-7.13,3.2-7.12,7.14c0,3.94,3.2,7.13,7.14,7.12
	c0.99,0,1.97-0.21,2.87-0.61c0.84-0.37,1.82,0.01,2.19,0.84c0.37,0.84-0.01,1.82-0.84,2.19l0,0c-5.28,2.34-11.45-0.03-13.8-5.31
	s0.03-11.45,5.31-13.8C22.09,14.84,23.54,14.54,25,14.54L25,14.54z M39.45,31.89l0.73-1.37c0.16-0.31,0.45-0.52,0.79-0.59l4.6-0.93
	c0.54-0.11,0.93-0.58,0.93-1.13v-4.75c0-0.52-0.35-0.98-0.86-1.12l-4.59-1.22c-0.38-0.1-0.68-0.38-0.8-0.75l-0.51-1.57
	c-0.11-0.33-0.06-0.69,0.12-0.98l2.45-3.85c0.3-0.46,0.22-1.07-0.18-1.45l-3.54-3.4c-0.37-0.36-0.94-0.42-1.38-0.16l-3.97,2.34
	c-0.33,0.2-0.75,0.21-1.1,0.04l-1.73-0.85c-0.32-0.16-0.55-0.45-0.62-0.8L28.88,5c-0.11-0.53-0.58-0.92-1.13-0.92h-5.02
	c-0.52,0-0.97,0.35-1.11,0.85L20.34,9.5c-0.1,0.36-0.37,0.65-0.73,0.78l-1.29,0.45c-0.33,0.12-0.69,0.08-0.99-0.1l-4.06-2.5
	c-0.45-0.28-1.04-0.21-1.42,0.16L8.41,11.7c-0.39,0.39-0.45,1.01-0.14,1.47l2.37,3.49c0.24,0.35,0.27,0.8,0.07,1.18l-0.88,1.7
	c-0.16,0.3-0.43,0.51-0.76,0.59l-4.66,1.1c-0.52,0.12-0.89,0.59-0.89,1.12v4.72c0,0.55,0.39,1.02,0.92,1.13l4.42,0.92
	c0.4,0.08,0.72,0.37,0.85,0.75l0.6,1.72c0.12,0.33,0.07,0.7-0.11,0.99l-2.56,4.09c-0.29,0.46-0.22,1.06,0.17,1.44l3.49,3.4
	c0.38,0.37,0.97,0.43,1.42,0.15l4.07-2.59c0.34-0.22,0.78-0.24,1.14-0.05l1.45,0.74c0.3,0.15,0.52,0.42,0.6,0.75l1.12,4.53
	c0.13,0.51,0.59,0.88,1.12,0.88h5.03c0.53,0,1-0.37,1.12-0.88l1.09-4.46c0.09-0.36,0.35-0.66,0.7-0.8l1.47-0.58
	c0.34-0.14,0.72-0.1,1.03,0.09l4.32,2.68c0.45,0.28,1.04,0.22,1.42-0.15l3.48-3.39c0.39-0.38,0.46-0.99,0.16-1.45l-2.53-3.91
	C39.28,32.71,39.26,32.26,39.45,31.89L39.45,31.89z"/>
</svg>
